# xmcd
#
# Track frame offsets: 
#        150
#        23924
#        45679
#        65914
#        84859
#        103568
#        121818
#        149720
#        169153
#        183529
#        211059
#        229177
#        249927
#        261176
#
# Disc length: 3719 seconds
#
# Revision: 1
# Processed by: cddbd v1.5.1PL2 Copyright (c) Steve Scherf et al.
# Submitted via: ExactAudioCopy v0.95b4
#
DISCID=c30e850e
DTITLE=Elba Ramalho-Zé Ramalho-Geraldo Azevedo-Alceu Valença - O Melho
DTITLE=r dos Encontros
DYEAR=1900
DGENRE=
TTITLE0=Admirável Gado Novo - Zé Ramalho
TTITLE1=Chão de Giz - Zé e Elba Ramalho
TTITLE2=Taxi Lunar - Zé, Elba e Geraldo
TTITLE3=Caravana - Zé, Elba e Geraldo
TTITLE4=Coração Bobo - Zé e Alceu
TTITLE5=Pelas Ruas Que Andei - Alceu Valença
TTITLE6=Pot-Pourri - Asa Branca - A Volta da Asa Branca - Zé, Elba, Ge
TTITLE6=raldo e Alceu
TTITLE7=A Terceira Lâmina - Zé Ramalho
TTITLE8=O Trem das Sete - Zé Ramalho
TTITLE9=Eternas Ondas - Zé, Elba e Geraldo
TTITLE10=Banquete dos Signos - Zé, Elba e Geraldo
TTITLE11=Disparada - Zé, Elba e Geraldo
TTITLE12=Bicho de Sete Cabeças II - Zé, Elba e Geraldo
TTITLE13=Pot-Pourri - Banho de Cheiro - Frevo Mulher - Zé, Elba Gerald
TTITLE13=o e Alceu
EXTD=
EXTT0=
EXTT1=
EXTT2=
EXTT3=
EXTT4=
EXTT5=
EXTT6=
EXTT7=
EXTT8=
EXTT9=
EXTT10=
EXTT11=
EXTT12=
EXTT13=
PLAYORDER=
